<?xml version="1.0" encoding="UTF-8" standalone="no"?>
<!-- Created with Inkscape (http://www.inkscape.org/) -->

<svg
   xmlns:dc="http://purl.org/dc/elements/1.1/"
   xmlns:cc="http://creativecommons.org/ns#"
   xmlns:rdf="http://www.w3.org/1999/02/22-rdf-syntax-ns#"
   xmlns:svg="http://www.w3.org/2000/svg"
   xmlns="http://www.w3.org/2000/svg"
   xmlns:sodipodi="http://sodipodi.sourceforge.net/DTD/sodipodi-0.dtd"
   xmlns:inkscape="http://www.inkscape.org/namespaces/inkscape"
   version="1.0"
   width="180"
   height="75"
   id="svg1903"
   inkscape:version="0.48.1 r9760"
   sodipodi:docname="Jabber_logo.svg">
  <metadata
     id="metadata3197">
    <rdf:RDF>
      <cc:Work
         rdf:about="">
        <dc:format>image/svg+xml</dc:format>
        <dc:type
           rdf:resource="http://purl.org/dc/dcmitype/StillImage" />
        <dc:title></dc:title>
      </cc:Work>
    </rdf:RDF>
  </metadata>
  <sodipodi:namedview
     pagecolor="#ffffff"
     bordercolor="#666666"
     borderopacity="1"
     objecttolerance="10"
     gridtolerance="10"
     guidetolerance="10"
     inkscape:pageopacity="0"
     inkscape:pageshadow="2"
     inkscape:window-width="1920"
     inkscape:window-height="1052"
     id="namedview3195"
     showgrid="false"
     inkscape:zoom="5.3222222"
     inkscape:cx="93.339343"
     inkscape:cy="36.253263"
     inkscape:window-x="1280"
     inkscape:window-y="0"
     inkscape:window-maximized="1"
     inkscape:current-layer="svg1903" />
  <defs
     id="defs1905" />
  <path
     style="fill:#000000"
     d="m 26.572348,64.93334 c -0.221684,-0.07843 -0.464793,-0.236809 -0.540242,-0.351959 -0.186925,-0.285284 -0.580726,-2.671088 -0.707757,-4.287877 -0.362976,-4.619759 1.177121,-9.231683 3.968146,-11.882884 0.379556,-0.36054 1.260613,-1.054222 1.957907,-1.541514 1.955402,-1.366502 3.480054,-2.637492 5.074975,-4.230628 2.090024,-2.087689 3.283339,-3.677842 4.265836,-5.684452 0.927528,-1.894344 1.274594,-3.298489 1.274594,-5.156712 0,-3.57577 -1.156696,-8.18958 -2.840052,-11.328362 -0.930998,-1.735937 -1.579628,-2.63524 -2.837944,-3.934707 -1.577851,-1.629455 -2.971141,-2.629629 -5.057659,-3.630647 -3.621034,-1.737209 -7.7924,-2.45722 -12.826435,-2.213944 -3.305339,0.159735 -5.274361,0.429379 -7.015776,0.960765 -2.1398208,0.652957 -3.1308868,1.453311 -5.3285246,4.30315 -0.9258646,1.200638 -1.4723069,1.557156 -2.031601,1.325489 C 3.3889344,17.055846 3.1742933,16.300498 3.0923803,14.33906 3.0227414,12.671532 3.3015117,9.3571373 3.5284022,9.1550485 3.7126807,8.9909138 6.3262768,7.8416806 7.7165373,7.3134694 11.164818,6.0033408 14.651635,5.4432534 18.614241,5.5629714 c 3.892448,0.1175985 8.438767,0.9328296 11.171165,2.0031771 4.62764,1.8127593 8.477261,5.3812765 11.510603,10.6700815 1.642874,2.864445 3.625234,8.077997 4.193119,11.027788 0.587088,3.049537 0.177963,6.096037 -1.222091,9.100157 -1.821087,3.907539 -5.237584,7.670173 -9.541105,10.507747 -2.683039,1.769092 -3.248812,2.185072 -4.042888,2.9725 -2.530295,2.50911 -3.404094,5.596991 -2.778078,9.817328 0.234815,1.583016 0.272451,2.225747 0.155721,2.65925 -0.203333,0.755123 -0.61084,0.922781 -1.488339,0.61234 z"
     id="path3976"
     inkscape:connector-curvature="0" />
  <path
     style="fill:#000000"
     d="M 15.654951,56.664473 C 14.851839,56.578847 13.296844,56.224334 12.382398,55.918385 9.3200051,54.893793 6.3509859,52.776442 5.469903,50.988752 4.5869677,49.197302 5.1243504,47.763627 6.6803688,47.759369 c 0.8087287,-0.0022 1.1178538,0.229571 2.4672057,1.849929 1.9042525,2.286705 3.2233525,3.462498 4.6749885,4.167096 1.205214,0.58499 2.259188,0.819954 3.711302,0.82737 1.224217,0.0063 1.649647,-0.06009 3.2881,-0.512736 1.407169,-0.388751 1.980952,-0.353653 2.30506,0.140999 0.364477,0.556262 -0.226333,1.39613 -1.253534,1.781966 -1.405922,0.52809 -2.666923,0.721916 -4.557802,0.700572 -0.73256,-0.0083 -1.479893,-0.03081 -1.660738,-0.05009 z"
     id="path3978"
     inkscape:connector-curvature="0" />
  <path
     style="fill:#000000"
     d="M 17.439919,63.336406 C 15.920577,63.182671 13.801078,62.683115 12.314725,62.128421 8.7719611,60.806291 4.6360701,57.828294 3.8020487,55.998974 3.4692933,55.269117 3.7502998,54.985995 4.90286,54.889875 c 0.9016084,-0.07519 1.2481585,0.06175 1.921193,0.759152 0.4506403,0.466958 1.7351746,1.513894 2.4566644,2.00226 1.3438006,0.909597 3.8423376,1.904482 5.8544656,2.33117 1.382949,0.293266 4.259794,0.409082 5.639809,0.227048 0.465032,-0.06134 1.027723,-0.135376 1.250426,-0.164522 0.518616,-0.06787 0.813307,0.08873 1.105623,0.587525 0.524455,0.894916 0.356866,1.942933 -0.365308,2.284446 -0.73493,0.347544 -3.71607,0.582333 -5.325814,0.419452 l 0,0 z"
     id="path3980"
     inkscape:connector-curvature="0" />
  <path
     style="fill:#000000"
     d="m 16.594408,69.537217 c -0.919393,-0.0655 -2.528689,-0.346315 -3.721188,-0.649321 -3.4920559,-0.887309 -7.18963,-2.70621 -8.3205004,-4.093 -1.0034855,-1.230577 -1.079727,-2.185498 -0.2497718,-3.128377 0.7043612,-0.800197 1.2916169,-0.919131 1.9736141,-0.399707 0.3682775,0.280488 0.8127526,0.797788 1.909704,2.2226 0.6651063,0.863895 2.2354291,1.779593 4.2604601,2.484389 1.088415,0.378814 4.022468,1.129812 4.964216,1.270637 1.796882,0.268697 3.640244,-0.04533 5.691885,-0.969638 0.625341,-0.28173 0.881731,-0.3032 1.174226,-0.09833 0.449794,0.315048 0.193347,0.921686 -0.702225,1.661144 -1.103466,0.911112 -2.724749,1.481898 -4.725723,1.66373 -1.045353,0.09499 -1.355609,0.09993 -2.254697,0.03587 l 0,0 z"
     id="path3982"
     inkscape:connector-curvature="0" />
  <path
     style="fill:#999999"
     d="m 19.124869,46.69138 c -0.169933,-0.137602 -0.22344,-0.293637 -0.256252,-0.747268 -0.07085,-0.979526 0.101186,-1.304643 1.948447,-3.682153 0.445247,-0.573055 1.366907,-2.318835 1.9204,-3.637566 0.402299,-0.958501 0.272546,-1.730741 -0.360495,-2.145525 -0.586133,-0.384049 -1.861251,0.269641 -3.950569,2.025262 -0.399693,0.335856 -0.848443,0.688444 -0.997222,0.783528 l -0.270507,0.172881 -0.19394,-0.452444 c -0.226853,-0.529227 -0.418619,-1.410957 -0.508033,-2.335907 -0.195807,-2.025544 -0.744027,-2.832562 -1.790804,-2.636185 -0.674137,0.126469 -1.295853,0.941273 -1.595233,2.090671 -0.180715,0.69381 -0.177798,1.917273 0.0086,3.610135 0.08181,0.742956 0.134653,1.787701 0.117432,2.321657 -0.03127,0.969555 -0.03173,0.971201 -0.34996,1.255363 -0.271577,0.242503 -0.372721,0.277282 -0.684685,0.235439 -0.699545,-0.09383 -0.780576,-0.210797 -1.100756,-1.588931 -0.461915,-1.988204 -0.600119,-3.01004 -0.594519,-4.395664 0.0099,-2.447974 0.67144,-3.91356 2.108241,-4.670591 0.455841,-0.240177 0.580904,-0.26156 1.529826,-0.26156 0.929631,0 1.088473,0.0258 1.581812,0.256917 0.667712,0.312808 1.035116,0.611906 1.486994,1.210541 0.427266,0.566029 0.629048,1.158782 0.715826,2.102808 l 0.06714,0.730412 0.281837,-0.27628 c 0.15501,-0.151954 0.609129,-0.640531 1.009153,-1.085727 1.255184,-1.396925 2.549997,-2.096927 3.753297,-2.029111 0.803919,0.04531 1.212602,0.346684 1.647386,1.214828 0.438658,0.875883 0.56204,1.793598 0.416777,3.099984 -0.235947,2.121923 -0.802544,3.358288 -2.643004,5.767278 -0.394759,0.516701 -0.983752,1.329696 -1.308875,1.806655 -0.934791,1.37135 -1.448947,1.697313 -1.988323,1.260553 l 0,0 z"
     id="path3984"
     inkscape:connector-curvature="0" />
</svg>
