<?xml version="1.0" encoding="UTF-8"?>
<svg xmlns="http://www.w3.org/2000/svg" xmlns:xlink="http://www.w3.org/1999/xlink" width="40pt" height="42pt" viewBox="0 0 40 42" version="1.1">
<g id="surface114738">
<rect x="0" y="0" width="40" height="42" style="fill:rgb(100%,100%,100%);fill-opacity:1;stroke:none;"/>
<path style="fill-rule:evenodd;fill:rgb(100%,100%,100%);fill-opacity:1;stroke-width:0.05;stroke-linecap:butt;stroke-linejoin:miter;stroke:rgb(0%,0%,0%);stroke-opacity:1;stroke-miterlimit:10;" d="M 40.430469 10.805989 C 40.275391 10.798763 39.975 10.949153 40.017187 11.271419 C 40.05957 11.59388 40.261328 11.665364 40.345898 11.572396 C 40.430469 11.479232 40.214453 12.023568 40.627539 12.166732 C 41.04082 12.310091 41.251953 12.080794 41.191016 11.916146 C 41.129883 11.751302 41.552539 12.302864 41.749609 11.98763 C 41.946875 11.672591 41.547852 11.37181 41.632227 11.414778 C 41.716797 11.457747 41.975 11.400325 41.89043 10.863216 C 41.806055 10.326107 41.045508 10.741536 41.129883 10.66263 C 41.214453 10.583919 41.003125 10.189974 40.740234 10.268685 C 40.477344 10.347591 40.458789 10.49056 40.430469 10.805599 L 40.430469 10.805989 " transform="matrix(20,0,0,20,-799.5,-203.799476)"/>
</g>
</svg>
