<?xml version="1.0" encoding="UTF-8"?>
<svg xmlns="http://www.w3.org/2000/svg" xmlns:xlink="http://www.w3.org/1999/xlink" width="59pt" height="65pt" viewBox="0 0 59 65" version="1.1">
<g id="surface130211">
<rect x="0" y="0" width="59" height="65" style="fill:rgb(100%,100%,100%);fill-opacity:1;stroke:none;"/>
<path style=" stroke:none;fill-rule:evenodd;fill:rgb(100%,100%,100%);fill-opacity:1;" d="M 1 9.191406 L 58.351562 9.191406 L 58.351562 37.867188 L 1 37.867188 Z M 1 9.191406 "/>
<path style=" stroke:none;fill-rule:evenodd;fill:rgb(100%,100%,100%);fill-opacity:1;" d="M 58.351562 37.871094 C 58.351562 42.394531 45.511719 46.0625 29.675781 46.0625 C 13.839844 46.0625 1 42.394531 1 37.871094 C 1 33.34375 13.839844 29.675781 29.675781 29.675781 C 45.511719 29.675781 58.351562 33.34375 58.351562 37.871094 "/>
<path style=" stroke:none;fill-rule:evenodd;fill:rgb(100%,100%,100%);fill-opacity:1;" d="M 58.351562 9.191406 C 58.351562 13.71875 45.511719 17.386719 29.675781 17.386719 C 13.839844 17.386719 1 13.71875 1 9.191406 C 1 4.667969 13.839844 1 29.675781 1 C 45.511719 1 58.351562 4.667969 58.351562 9.191406 "/>
<path style="fill:none;stroke-width:0.05;stroke-linecap:butt;stroke-linejoin:miter;stroke:rgb(0%,0%,0%);stroke-opacity:1;stroke-miterlimit:10;" d="M 40.967568 6.95957 L 40.967568 8.393555 " transform="matrix(20,0,0,20,-818.351352,-130)"/>
<path style="fill:none;stroke-width:0.05;stroke-linecap:butt;stroke-linejoin:miter;stroke:rgb(0%,0%,0%);stroke-opacity:1;stroke-miterlimit:10;" d="M 43.835146 6.95957 L 43.835146 8.393555 " transform="matrix(20,0,0,20,-818.351352,-130)"/>
<path style="fill:none;stroke-width:0.05;stroke-linecap:butt;stroke-linejoin:miter;stroke:rgb(0%,0%,0%);stroke-opacity:1;stroke-miterlimit:10;" d="M 40.967568 6.95957 C 40.967568 6.733398 41.835732 6.55 42.401357 6.55 C 42.966982 6.55 43.835146 6.733398 43.835146 6.95957 " transform="matrix(20,0,0,20,-818.351352,-130)"/>
<path style="fill:none;stroke-width:0.05;stroke-linecap:butt;stroke-linejoin:miter;stroke:rgb(0%,0%,0%);stroke-opacity:1;stroke-miterlimit:10;" d="M 40.967568 6.95957 C 40.967568 7.185937 41.835732 7.369336 42.401357 7.369336 C 42.966982 7.369336 43.835146 7.185937 43.835146 6.95957 " transform="matrix(20,0,0,20,-818.351352,-130)"/>
<path style="fill:none;stroke-width:0.05;stroke-linecap:butt;stroke-linejoin:miter;stroke:rgb(0%,0%,0%);stroke-opacity:1;stroke-miterlimit:10;" d="M 40.967568 7.318164 C 40.967568 7.544336 41.835732 7.727734 42.401357 7.727734 C 42.966982 7.727734 43.835146 7.544336 43.835146 7.318164 " transform="matrix(20,0,0,20,-818.351352,-130)"/>
<path style="fill:none;stroke-width:0.05;stroke-linecap:butt;stroke-linejoin:miter;stroke:rgb(0%,0%,0%);stroke-opacity:1;stroke-miterlimit:10;" d="M 40.967568 7.676562 C 40.967568 7.902734 41.835732 8.086133 42.401357 8.086133 C 42.966982 8.086133 43.835146 7.902734 43.835146 7.676562 " transform="matrix(20,0,0,20,-818.351352,-130)"/>
<path style="fill:none;stroke-width:0.05;stroke-linecap:butt;stroke-linejoin:miter;stroke:rgb(0%,0%,0%);stroke-opacity:1;stroke-miterlimit:10;" d="M 40.967568 8.034961 C 40.967568 8.261328 41.835732 8.444727 42.401357 8.444727 C 42.966982 8.444727 43.835146 8.261328 43.835146 8.034961 " transform="matrix(20,0,0,20,-818.351352,-130)"/>
<path style="fill:none;stroke-width:0.05;stroke-linecap:butt;stroke-linejoin:miter;stroke:rgb(0%,0%,0%);stroke-opacity:1;stroke-miterlimit:10;" d="M 40.967568 8.393555 C 40.967568 8.619727 41.835732 8.803125 42.401357 8.803125 C 42.966982 8.803125 43.835146 8.619727 43.835146 8.393555 " transform="matrix(20,0,0,20,-818.351352,-130)"/>
</g>
</svg>
